<svg xmlns="http://www.w3.org/2000/svg" version="1.1" xmlns:xlink="http://www.w3.org/1999/xlink" xmlns:svgjs="http://svgjs.dev/svgjs" width="1000" height="750" viewBox="0 0 1000 750"><rect width="1000" height="750" fill="#ffffff"></rect><g transform="matrix(0.834,0,0,0.834,82.49454545454546,115.4193570850203)"><svg viewBox="0 0 396 247" data-background-color="#ffffff" preserveAspectRatio="xMidYMid meet" height="623" width="1000" xmlns="http://www.w3.org/2000/svg" xmlns:xlink="http://www.w3.org/1999/xlink"><g id="tight-bounds" transform="matrix(1,0,0,1,0.2400000000000091,-0.09999999999999432)"><svg viewBox="0 0 395.52 247.2" height="247.2" width="395.52"><g><svg></svg></g><g><svg viewBox="0 0 395.52 247.2" height="247.2" width="395.52"><g transform="matrix(1,0,0,1,75.54432,65.69173016160309)"><svg viewBox="0 0 244.43135999999998 115.8165396767938" height="115.8165396767938" width="244.43135999999998"><g><svg viewBox="0 0 244.43135999999998 115.8165396767938" height="115.8165396767938" width="244.43135999999998"><g><svg viewBox="0 0 244.43135999999998 115.8165396767938" height="115.8165396767938" width="244.43135999999998"><g><svg viewBox="0 0 244.43135999999998 115.8165396767938" height="115.8165396767938" width="244.43135999999998"><g><svg viewBox="0 0 244.43135999999998 115.8165396767938" height="115.8165396767938" width="244.43135999999998" id="textblock"><g><svg viewBox="0 0 244.43135999999998 115.8165396767938" height="115.8165396767938" width="244.43135999999998"><g transform="matrix(1,0,0,1,0,0)"><svg width="244.43135999999998" viewBox="3.6500000953674316 -36.20000076293945 77.33999633789062 36.650001525878906" height="115.8165396767938" data-palette-color="#010c80"><path d="M22.6-4.55L22.6 0 3.65 0 3.65-33.7 8.8-33.7 8.8-4.55 22.6-4.55ZM32.6-25.35L32.6 0 27.65 0 27.65-25.35 32.6-25.35ZM33.2-33.1L33.2-33.1Q33.2-31.85 32.3-30.95 31.4-30.05 30.1-30.05 28.8-30.05 27.92-30.93 27.05-31.8 27.05-33.1 27.05-34.4 27.92-35.3 28.8-36.2 30.1-36.2 31.4-36.2 32.3-35.3 33.2-34.4 33.2-33.1ZM59.25-22.03Q62.4-18.35 62.4-12.65 62.4-6.95 59.17-3.25 55.95 0.45 50.3 0.45L50.3 0.45Q44.7 0.45 41.5-3.2 38.3-6.85 38.3-12.45L38.3-12.45Q38.3-18.15 41.6-21.93 44.9-25.7 50.3-25.7L50.3-25.7Q56.1-25.7 59.25-22.03ZM43.4-12.6L43.4-12.6Q43.4-8.85 45.25-6.28 47.1-3.7 50.3-3.7L50.3-3.7Q53.7-3.7 55.47-6.2 57.25-8.7 57.25-12.55L57.25-12.55Q57.25-16.5 55.55-19.03 53.85-21.55 50.25-21.55L50.25-21.55Q47-21.55 45.2-18.98 43.4-16.4 43.4-12.6ZM72.79-13.5L72.79 0 67.89 0 67.89-25.35 72.79-25.35 72.79-20.9Q74.64-25.6 79.44-25.6L79.44-25.6Q80.14-25.6 80.99-25.45L80.99-25.45 80.99-20.65Q79.94-21.1 78.64-21.1L78.64-21.1Q76.09-21.1 74.44-18.85 72.79-16.6 72.79-13.5L72.79-13.5Z" opacity="1" transform="matrix(1,0,0,1,0,0)" fill="#010c80" class="undefined-text-0" data-fill-palette-color="primary" id="text-0"></path></svg></g></svg></g></svg></g></svg></g></svg></g></svg></g></svg></g><path d="M236.559 59.692L236.559 11.036 11.432 11.036 11.432 236.164 236.559 236.164 236.559 187.508 226.115 187.508 226.115 225.719 21.877 225.719 21.877 21.481 226.115 21.481 226.115 59.692Z" fill="#010c80" stroke="transparent" data-fill-palette-color="primary"></path></svg></g><defs></defs></svg><rect width="395.52" height="247.2" fill="none" stroke="none" visibility="hidden"></rect></g></svg></g></svg>